<?xml version="1.0" encoding="UTF-8"?>
<svg version="1.1" xmlns="http://www.w3.org/2000/svg" width="100" height="100">
<path d="M0 0 C0.89203125 0.01804687 1.7840625 0.03609375 2.703125 0.0546875 C3.71632813 0.08949219 3.71632813 0.08949219 4.75 0.125 C5.08 1.115 5.41 2.105 5.75 3.125 C7.69090749 3.82287865 7.69090749 3.82287865 10 4.125 C17.45539644 5.59723468 21.23970375 9.20166789 25.75 15.125 C27.17041821 17.96583641 27.06452272 19.97977278 26.75 23.125 C25 25.5 25 25.5 22.75 27.125 C21.43 27.125 20.11 27.125 18.75 27.125 C18.09 25.475 17.43 23.825 16.75 22.125 C16.75 27.075 16.75 32.025 16.75 37.125 C17.41 35.145 18.07 33.165 18.75 31.125 C21.7219385 32.24951727 24.08440687 33.34793791 26.75 35.125 C27.41 32.815 28.07 30.505 28.75 28.125 C29.74 28.125 30.73 28.125 31.75 28.125 C32.59057704 36.53077035 29.86638645 41.88457026 25.75 49.125 C24.76 49.125 23.77 49.125 22.75 49.125 C22.75 50.115 22.75 51.105 22.75 52.125 C15.2828955 56.43590569 9.45984454 59.16555665 0.75 58.125 C0.42 57.135 0.09 56.145 -0.25 55.125 C-3.22 54.465 -6.19 53.805 -9.25 53.125 C-9.25 46.855 -9.25 40.585 -9.25 34.125 C-10.9 34.125 -12.55 34.125 -14.25 34.125 C-14.25 38.415 -14.25 42.705 -14.25 47.125 C-19.18688363 44.65655818 -20.91404579 42.016453 -23.25 37.125 C-23.87243024 34.72097595 -24.09413501 32.61883987 -24.25 30.125 C-24.91 30.125 -25.57 30.125 -26.25 30.125 C-27.02732432 22.35175681 -24.89107898 15.00071193 -21.25 8.125 C-17.41493919 5.10313271 -13.89190224 3.53775286 -9.25 2.125 C-8.63898437 1.77953125 -8.02796875 1.4340625 -7.3984375 1.078125 C-4.7813099 -0.08292797 -2.84958433 -0.07498906 0 0 Z M-11.25 7.9375 C-14.11878349 11.07523195 -14.3884919 13.59270762 -14.375 17.6875 C-14.37757812 18.47253906 -14.38015625 19.25757813 -14.3828125 20.06640625 C-14.37976366 22.18938977 -14.37976366 22.18938977 -13.25 24.125 C-11.93 24.125 -10.61 24.125 -9.25 24.125 C-8.755 15.215 -8.755 15.215 -8.25 6.125 C-9.57635265 6.0130801 -9.57635265 6.0130801 -11.25 7.9375 Z " fill="#C39208" transform="translate(47.25,20.875)"/>
<path d="M0 0 C0 16.5 0 33 0 50 C-3 51 -3 51 -10 49 C-10 42.73 -10 36.46 -10 30 C-11.65 30 -13.3 30 -15 30 C-15 34.29 -15 38.58 -15 43 C-18.85738697 41.07130651 -19.61560824 40.60579461 -21.6875 37.1875 C-22.10386719 36.52105469 -22.52023438 35.85460938 -22.94921875 35.16796875 C-25.50223505 29.90059311 -24.80319807 25.92223068 -23.25 20.4375 C-23.07984375 19.77814453 -22.9096875 19.11878906 -22.734375 18.43945312 C-21.72632696 14.75192445 -20.6829997 11.77478653 -18 9 C-17.34 9 -16.68 9 -16 9 C-16 13.29 -16 17.58 -16 22 C-13.36 22 -10.72 22 -8 22 C-8.33 15.07 -8.66 8.14 -9 1 C-7 0 -7 0 0 0 Z " fill="#C39308" transform="translate(48,25)"/>
<path d="M0 0 C0 18.15 0 36.3 0 55 C11.66636736 50.00324781 11.66636736 50.00324781 18.875 40.125 C19.24625 39.09375 19.6175 38.0625 20 37 C20.66 36.67 21.32 36.34 22 36 C22.68472665 34.11235097 22.68472665 34.11235097 23.125 31.9375 C23.29257813 31.20402344 23.46015625 30.47054687 23.6328125 29.71484375 C23.81457031 28.86599609 23.81457031 28.86599609 24 28 C24.99 28 25.98 28 27 28 C27.84057704 36.40577035 25.11638645 41.75957026 21 49 C20.01 49 19.02 49 18 49 C18 49.99 18 50.98 18 52 C10.5328955 56.31090569 4.70984454 59.04055665 -4 58 C-5.26218322 55.47563356 -5.08309335 53.82229412 -5.02172852 50.99951172 C-4.99158409 49.43811966 -4.99158409 49.43811966 -4.96083069 47.84518433 C-4.93379562 46.71807037 -4.90676056 45.59095642 -4.87890625 44.4296875 C-4.85529526 43.27832306 -4.83168427 42.12695862 -4.80735779 40.94070435 C-4.7305941 37.25201473 -4.64662433 33.56352839 -4.5625 29.875 C-4.50929205 27.3789163 -4.45655158 24.88282259 -4.40429688 22.38671875 C-4.27496179 16.25768588 -4.13970512 10.12880479 -4 4 C-5.44956856 4.28468292 -6.89712409 4.57962906 -8.34375 4.87890625 C-9.15005859 5.04205322 -9.95636719 5.2052002 -10.78710938 5.37329102 C-13.75868497 6.21486588 -15.19827415 7.52262696 -17 10 C-18.04976964 13.14930893 -18.10131595 15.38814456 -18.0625 18.6875 C-18.05347656 19.68136719 -18.04445313 20.67523438 -18.03515625 21.69921875 C-18.02355469 22.45847656 -18.01195312 23.21773437 -18 24 C-16.68 24 -15.36 24 -14 24 C-14.02320312 22.94039062 -14.04640625 21.88078125 -14.0703125 20.7890625 C-14.08906944 19.4010487 -14.10726972 18.0130273 -14.125 16.625 C-14.14175781 15.92632812 -14.15851562 15.22765625 -14.17578125 14.5078125 C-14.19344267 12.67102514 -14.10303261 10.83398037 -14 9 C-13.34 8.34 -12.68 7.68 -12 7 C-12 13.27 -12 19.54 -12 26 C-14.64 26 -17.28 26 -20 26 C-20 21.71 -20 17.42 -20 13 C-23.9158299 16.9158299 -24.64918707 18.16442677 -26.0625 23.1875 C-26.97265625 26.41796875 -26.97265625 26.41796875 -28 29 C-28.99 29.33 -29.98 29.66 -31 30 C-31.77732432 22.22675681 -29.64107898 14.87571193 -26 8 C-22.16493919 4.97813271 -18.64190224 3.41275286 -14 2 C-10 0 -10 0 0 0 Z " fill="#765D0B" transform="translate(52,21)"/>
<path d="M0 0 C-0.78375 0.556875 -1.5675 1.11375 -2.375 1.6875 C-5.86278042 4.76006846 -6.88304394 7.26671116 -7.1953125 11.89453125 C-7.17210937 12.85746094 -7.14890625 13.82039063 -7.125 14.8125 C-7.10695313 15.78832031 -7.08890625 16.76414062 -7.0703125 17.76953125 C-7.04710937 18.50558594 -7.02390625 19.24164063 -7 20 C-5.68 20 -4.36 20 -3 20 C-3.02320312 18.94039062 -3.04640625 17.88078125 -3.0703125 16.7890625 C-3.08906944 15.4010487 -3.10726972 14.0130273 -3.125 12.625 C-3.14175781 11.92632812 -3.15851562 11.22765625 -3.17578125 10.5078125 C-3.19344267 8.67102514 -3.10303261 6.83398037 -3 5 C-2.34 4.34 -1.68 3.68 -1 3 C-1 9.27 -1 15.54 -1 22 C-3.64 22 -6.28 22 -9 22 C-9 17.71 -9 13.42 -9 9 C-12.9158299 12.9158299 -13.64918707 14.16442677 -15.0625 19.1875 C-15.97265625 22.41796875 -15.97265625 22.41796875 -17 25 C-17.99 25.33 -18.98 25.66 -20 26 C-20.77732432 18.22675681 -18.64107898 10.87571193 -15 4 C-9.72695287 -0.15785962 -6.55112544 -1.31022509 0 0 Z " fill="#66500F" transform="translate(41,25)"/>
<path d="M0 0 C0.99 0 1.98 0 3 0 C3.84057704 8.40577035 1.11638645 13.75957026 -3 21 C-3.99 21 -4.98 21 -6 21 C-6 21.99 -6 22.98 -6 24 C-9.96 25.98 -9.96 25.98 -14 28 C-14.33 26.35 -14.66 24.7 -15 23 C-14.45730469 22.57589844 -13.91460937 22.15179688 -13.35546875 21.71484375 C-8.53467778 17.76266377 -6.10249303 14.84025841 -4 9 C-3.34 8.67 -2.68 8.34 -2 8 C-1.31527335 6.11235097 -1.31527335 6.11235097 -0.875 3.9375 C-0.70742187 3.20402344 -0.53984375 2.47054687 -0.3671875 1.71484375 C-0.24601562 1.14894531 -0.12484375 0.58304688 0 0 Z " fill="#6D550A" transform="translate(76,49)"/>
<path d="M0 0 C2 2 2 2 2 5 C1.01 5 0.02 5 -1 5 C-1 5.99 -1 6.98 -1 8 C-4.96 9.98 -4.96 9.98 -9 12 C-9.33 10.35 -9.66 8.7 -10 7 C-8.90081184 6.01524786 -7.7954398 5.03739527 -6.6875 4.0625 C-6.07261719 3.51722656 -5.45773438 2.97195312 -4.82421875 2.41015625 C-3 1 -3 1 0 0 Z " fill="#503D08" transform="translate(71,65)"/>
<path d="M0 0 C0.33 0 0.66 0 1 0 C1 6.27 1 12.54 1 19 C-1.64 19 -4.28 19 -7 19 C-7 14.71 -7 10.42 -7 6 C-7.66 5.67 -8.32 5.34 -9 5 C-8.01 5 -7.02 5 -6 5 C-5.67 8.96 -5.34 12.92 -5 17 C-3.68 17 -2.36 17 -1 17 C-1.01160156 15.94039062 -1.02320313 14.88078125 -1.03515625 13.7890625 C-1.04453476 12.40104342 -1.05363489 11.01302245 -1.0625 9.625 C-1.07087891 8.92632812 -1.07925781 8.22765625 -1.08789062 7.5078125 C-1.11328125 2.2265625 -1.11328125 2.2265625 0 0 Z " fill="#71550F" transform="translate(39,28)"/>
<path d="M0 0 C1.00322648 3.00967944 1.03098357 4.4240277 0.6875 7.5 C0.60886719 8.2734375 0.53023437 9.046875 0.44921875 9.84375 C0 12 0 12 -2 15 C-2.66 15 -3.32 15 -4 15 C-4.17786056 9.84204369 -4.11596899 5.81970715 -2 1 C-1.34 0.67 -0.68 0.34 0 0 Z " fill="#69520D" transform="translate(25,36)"/>
<path d="M0 0 C2.9719385 1.12451727 5.33440687 2.22293791 8 4 C8 4.66 8 5.32 8 6 C7.34 6 6.68 6 6 6 C5.67 7.98 5.34 9.96 5 12 C4.06576355 8.98968256 3.95550089 8.13349732 5 5 C3.02 5 1.04 5 -1 5 C-0.67 3.35 -0.34 1.7 0 0 Z " fill="#B78E14" transform="translate(66,52)"/>
<path d="M0 0 C0.99 0 1.98 0 3 0 C2.67 1.32 2.34 2.64 2 4 C1.01 3.67 0.02 3.34 -1 3 C-2.74849671 7.3039919 -4.3770361 11.64750591 -6 16 C-7.2153691 12.35389269 -6.65387751 11.36434773 -5.25 7.875 C-4.73179688 6.54082031 -4.73179688 6.54082031 -4.203125 5.1796875 C-3 3 -3 3 0 2 C0 1.34 0 0.68 0 0 Z " fill="#4D3B08" transform="translate(31,30)"/>
<path d="M0 0 C0.99 0 1.98 0 3 0 C3 2.97 3 5.94 3 9 C2.34 8.01 1.68 7.02 1 6 C0.01 6.495 0.01 6.495 -1 7 C-0.67 4.69 -0.34 2.38 0 0 Z " fill="#685415" transform="translate(76,49)"/>
<path d="M0 0 C0.33 0.66 0.66 1.32 1 2 C0.0625 4.125 0.0625 4.125 -1 6 C-2.32 5.67 -3.64 5.34 -5 5 C-4.1875 3.0625 -4.1875 3.0625 -3 1 C-2.01 0.67 -1.02 0.34 0 0 Z " fill="#D09B03" transform="translate(40,47)"/>
</svg>
