<?xml version="1.0" standalone="no"?>
<!DOCTYPE svg PUBLIC "-//W3C//DTD SVG 20010904//EN"
 "http://www.w3.org/TR/2001/REC-SVG-20010904/DTD/svg10.dtd">
<svg version="1.0" xmlns="http://www.w3.org/2000/svg"
 width="280.000000pt" height="280.000000pt" viewBox="0 0 280.000000 280.000000"
 preserveAspectRatio="xMidYMid meet">

<g transform="translate(0.000000,280.000000) scale(0.100000,-0.100000)"
fill="#000000" stroke="none">
<path d="M1230 2713 c-180 -18 -406 -77 -545 -142 -108 -51 -224 -140 -315
-241 -41 -45 -103 -111 -137 -145 -75 -76 -102 -132 -138 -292 -49 -218 -44
-447 16 -745 35 -174 46 -207 106 -318 58 -108 88 -151 156 -223 43 -44 61
-57 85 -57 16 0 35 -7 42 -15 7 -8 18 -15 26 -15 12 0 19 -25 26 -90 5 -39 32
-31 36 10 6 73 -70 149 -148 150 -31 0 -39 6 -63 42 -19 29 -24 45 -16 54 5 6
8 18 7 25 -5 21 34 16 62 -7 27 -23 260 -216 334 -277 25 -21 46 -45 46 -54 0
-24 56 -89 106 -123 52 -35 234 -120 256 -120 9 0 31 -6 49 -14 19 -8 56 -17
83 -20 27 -4 61 -13 77 -21 39 -20 76 -19 106 5 14 11 40 22 59 26 37 7 41 18
19 48 -15 19 -21 20 -165 16 -71 -2 -187 45 -212 86 -26 42 -72 67 -116 62
-39 -5 -90 14 -147 56 -16 13 -46 28 -65 35 -19 6 -43 19 -55 29 -11 10 -30
25 -41 33 -61 41 -145 109 -209 170 -40 38 -77 69 -83 69 -16 0 -82 68 -82 85
0 8 -3 15 -7 15 -5 0 -9 17 -10 38 -2 45 73 205 99 210 14 3 91 -84 161 -183
10 -14 23 -23 28 -19 6 4 0 17 -15 33 -14 15 -26 35 -26 44 0 10 -23 45 -51
79 -28 33 -47 64 -42 68 4 4 49 13 98 20 182 23 261 37 289 49 49 20 125 5
176 -35 23 -19 47 -34 53 -34 9 0 100 -63 125 -88 8 -7 26 -19 42 -27 15 -8
30 -20 33 -28 15 -40 340 -166 471 -182 31 -4 59 -11 62 -16 6 -11 -25 -99
-36 -99 -3 0 -13 15 -21 32 l-14 33 -115 6 c-63 4 -126 10 -139 14 -17 6 -22
5 -17 -3 4 -7 -5 -9 -31 -5 -42 6 -78 22 -70 30 3 2 14 0 25 -6 12 -6 31 -10
44 -10 17 1 18 3 6 6 -10 2 -18 14 -19 26 0 18 -23 33 -123 83 -101 50 -126
59 -145 50 -19 -8 -28 -4 -67 35 -27 27 -54 68 -68 104 -14 32 -31 62 -40 67
-25 14 -125 13 -185 -1 -39 -10 -64 -24 -92 -52 -36 -36 -39 -43 -39 -94 0
-79 20 -112 86 -141 31 -13 59 -22 64 -19 16 10 47 -13 59 -44 16 -38 77 -86
143 -112 29 -11 57 -24 63 -29 25 -21 189 -100 207 -100 11 0 33 -11 49 -24
17 -14 49 -28 76 -32 26 -4 60 -15 77 -25 46 -27 231 -69 304 -69 113 0 142
48 82 136 l-31 44 40 0 c44 0 42 1 125 -98 32 -39 67 -74 77 -77 13 -5 40 8
87 42 81 58 300 268 290 279 -5 4 -27 1 -50 -6 -24 -8 -46 -13 -50 -12 -5 1
-8 -16 -8 -37 0 -40 -20 -71 -44 -71 -7 0 -30 11 -50 25 -26 18 -36 21 -36 10
0 -8 8 -19 18 -24 13 -8 8 -10 -27 -11 -30 0 -58 -9 -90 -28 -31 -20 -53 -27
-66 -22 -18 6 -17 9 13 24 17 9 32 21 32 26 0 13 -17 13 -25 0 -11 -17 -50
-11 -69 12 -16 18 -18 31 -12 97 8 87 26 124 59 119 20 -3 22 -8 21 -75 -1
-40 2 -73 7 -73 5 0 9 4 9 10 0 13 31 1 59 -24 l23 -21 -6 21 c-9 28 20 40 44
19 9 -8 20 -12 23 -8 8 8 -35 67 -80 109 -18 18 -33 42 -33 54 0 21 3 22 38
16 20 -3 49 -6 64 -6 21 0 36 -13 70 -60 46 -64 62 -75 52 -35 -6 25 8 35 21
15 14 -22 23 -8 15 23 -4 17 -11 44 -14 59 -7 32 -36 61 -82 83 -36 17 -44 44
-21 64 23 19 188 -44 207 -79 5 -10 10 -54 10 -97 l1 -78 29 34 c90 106 170
365 170 551 0 77 -25 250 -49 353 -49 199 -154 432 -261 575 -67 90 -202 222
-280 273 -169 111 -387 192 -589 218 -78 10 -259 12 -341 4z m347 -568 c30
-17 31 -20 18 -45 -16 -32 -36 -42 -153 -83 -94 -32 -117 -54 -52 -50 l35 3
-42 -36 c-23 -19 -51 -50 -63 -69 -27 -43 -65 -49 -58 -10 3 14 2 27 -1 30 -4
2 -2 32 3 68 9 57 13 65 40 77 16 7 61 43 99 80 67 63 72 66 107 60 20 -4 50
-15 67 -25z m196 13 l58 -11 -20 -20 c-12 -13 -41 -23 -73 -27 -45 -6 -56 -5
-71 11 -10 11 -24 19 -32 19 -8 0 -15 7 -15 15 0 8 -8 15 -17 16 -15 0 -15 2
2 9 22 10 77 6 168 -12z m507 -262 c0 -43 -6 -45 -14 -4 -2 14 -9 35 -15 46
-18 34 -12 49 9 22 12 -15 20 -41 20 -64z m-636 29 c-9 -14 -26 -59 -38 -100
-12 -40 -31 -85 -43 -99 -21 -24 -101 -71 -108 -64 -2 2 -1 30 2 62 5 52 10
60 46 89 22 18 65 56 96 84 31 29 57 53 59 53 1 0 -5 -11 -14 -25z m-435 -57
c-4 -29 -8 -74 -8 -99 -1 -39 -5 -49 -32 -68 l-32 -24 -17 23 c-19 25 -13 55
17 91 7 8 13 21 13 28 0 10 59 101 65 101 1 0 -2 -24 -6 -52z m1107 -103 c18
-13 17 -14 -18 -15 -36 0 -47 8 -31 23 10 11 28 8 49 -8z m-191 -141 c9 -14
31 -32 48 -41 91 -42 120 -60 108 -67 -21 -14 -98 -8 -132 9 -35 18 -129 103
-129 117 0 4 20 8 44 8 36 0 47 -5 61 -26z m-1052 -13 c-5 -19 -63 -81 -63
-67 0 11 54 86 62 86 3 0 4 -9 1 -19z m831 -12 c9 -45 7 -89 -3 -89 -5 0 -12
17 -16 38 l-8 37 -8 -30 c-4 -16 -9 -41 -11 -55 -5 -35 -46 -117 -62 -123 -15
-6 -62 132 -53 156 7 17 124 97 143 97 6 0 14 -14 18 -31z m-559 -85 c19 -12
28 -14 38 -5 29 24 37 -24 11 -64 -20 -31 -28 -31 -42 0 -6 14 -20 25 -30 25
-27 0 -31 8 -18 35 13 29 11 29 41 9z m757 -24 c9 -41 4 -60 -15 -60 -13 0
-39 78 -30 93 12 19 38 0 45 -33z m105 3 c25 -4 38 -15 58 -50 15 -24 37 -49
51 -55 13 -6 24 -14 24 -18 0 -15 -26 -30 -52 -30 -31 0 -43 16 -53 73 -7 37
-21 55 -32 43 -3 -3 1 -23 10 -43 9 -21 19 -54 22 -73 l5 -35 -13 30 c-13 28
-14 25 -13 -50 1 -71 -1 -80 -17 -80 -15 0 -19 11 -22 74 -4 65 -13 112 -41
210 -7 22 -5 23 17 17 13 -5 38 -10 56 -13z m-231 -66 c12 -15 26 -18 67 -15
29 3 60 8 69 12 14 6 20 2 28 -20 9 -24 7 -37 -11 -77 -31 -65 -42 -72 -73
-52 -16 11 -26 13 -26 6 0 -6 5 -11 10 -11 6 0 10 -5 10 -11 0 -6 10 -19 23
-29 l22 -19 -22 -16 c-17 -12 -23 -26 -23 -55 0 -46 23 -63 103 -74 39 -6 54
-4 82 14 33 20 39 40 12 40 -7 0 -21 8 -32 16 -19 16 -19 16 5 9 14 -4 41 -15
60 -23 19 -9 49 -19 65 -23 27 -6 26 -6 -12 -8 -40 -1 -45 -5 -73 -48 -16 -27
-30 -53 -30 -59 0 -21 46 -79 65 -82 39 -7 37 -20 -7 -45 -31 -18 -52 -24 -75
-20 -29 5 -33 2 -33 -16 0 -22 -5 -24 -57 -21 -25 1 -35 -5 -50 -27 -25 -39
-32 -43 -84 -43 -58 0 -80 22 -86 87 -3 33 -1 44 5 34 16 -22 103 -26 141 -7
48 25 71 53 71 85 0 41 -20 53 -116 64 -72 9 -87 9 -95 -3 -6 -11 -9 -1 -9 30
0 25 -7 54 -15 64 -22 29 -19 31 28 28 26 -2 49 2 62 12 19 14 19 16 3 32 -23
24 -78 21 -100 -5 -9 -12 -18 -16 -20 -10 -2 5 -11 7 -21 4 -19 -8 -23 -26 -4
-22 6 1 12 -5 12 -13 0 -18 -63 -24 -82 -8 -7 5 -17 7 -22 4 -6 -4 -18 -2 -28
4 -10 5 -30 14 -44 19 -16 6 -36 30 -58 70 -22 42 -27 59 -17 55 9 -3 16 -1
16 5 0 7 6 11 13 9 15 -3 97 42 97 54 0 4 -6 8 -14 8 -20 0 -32 40 -15 51 8 5
20 9 27 9 6 0 12 12 12 28 l0 27 20 -25 c11 -14 20 -32 20 -40 0 -8 4 -21 9
-29 7 -11 19 1 51 52 42 67 54 78 63 55 3 -10 10 -8 23 5 18 17 19 17 32 0 7
-10 19 -26 28 -36z m44 32 c0 -24 -23 -21 -28 4 -2 10 3 17 12 17 10 0 16 -9
16 -21z m-470 -64 c-11 -21 -11 -34 4 -87 20 -74 52 -144 80 -175 23 -27 15
-29 -25 -6 -18 11 -41 42 -62 83 -40 80 -36 74 -43 68 -12 -13 67 -156 116
-211 29 -32 50 -61 46 -64 -3 -4 -33 -6 -66 -6 -49 0 -65 4 -85 23 -20 18 -37
57 -39 92 -1 3 -5 10 -10 15 -8 7 -7 -2 10 -72 10 -42 -21 -20 -45 31 -28 58
-26 75 9 109 31 30 33 50 2 22 -20 -18 -102 -35 -102 -20 0 5 19 24 41 43 28
22 52 56 71 100 l30 65 14 -45 c14 -45 40 -87 48 -79 2 2 -2 27 -9 54 -10 41
-10 51 0 57 8 5 11 17 8 30 -5 19 -3 21 7 11 11 -10 11 -17 0 -38z m-265 -45
c-6 -19 19 -80 33 -80 4 0 13 -9 20 -20 19 -31 -2 -24 -37 12 -30 31 -38 59
-25 92 9 23 17 20 9 -4z m75 -9 c0 -5 -9 -7 -20 -4 -11 3 -20 7 -20 9 0 2 9 4
20 4 11 0 20 -4 20 -9z m270 -12 c0 -24 -23 -21 -28 4 -2 10 3 17 12 17 10 0
16 -9 16 -21z m-290 -36 c0 -20 -24 -11 -28 10 -2 12 1 15 12 11 9 -3 16 -13
16 -21z m27 -35 c-3 -8 -6 -5 -6 6 -1 11 2 17 5 13 3 -3 4 -12 1 -19z m-125
-53 c-2 -15 0 -25 7 -25 22 0 10 -26 -27 -57 l-38 -31 -31 27 c-23 20 -28 31
-23 46 11 30 36 47 78 56 20 3 38 7 38 8 1 0 -1 -10 -4 -24z m848 -35 c-14
-14 -19 -28 -14 -42 4 -14 2 -18 -5 -14 -18 11 -13 44 11 66 28 26 36 18 8
-10z m-1150 -85 c-36 -7 -76 -17 -90 -23 -54 -22 -97 -98 -87 -155 l6 -32 -15
29 c-22 39 -6 90 39 135 43 40 97 60 162 59 l50 0 -65 -13z m122 -51 c9 -26
12 -42 8 -38 -14 14 -41 84 -33 84 5 0 16 -21 25 -46z m643 31 c40 -18 16 -19
-26 0 -19 8 -27 14 -19 14 8 0 29 -6 45 -14z m845 -25 c13 -9 13 -10 0 -10 -8
0 -22 5 -30 10 -13 9 -13 10 0 10 8 0 22 -5 30 -10z m-125 -61 c-4 -5 -13 -9
-22 -9 -13 0 -13 3 -3 15 13 15 35 11 25 -6z m-475 -9 c0 -6 -7 -13 -15 -16
-8 -4 -15 -12 -15 -20 0 -8 -4 -14 -10 -14 -16 0 -11 32 8 46 21 16 32 17 32
4z m343 -50 c-7 -8 -42 44 -36 53 3 5 13 -4 23 -20 9 -15 15 -30 13 -33z
m-1172 9 c9 -18 9 -19 -10 -7 -12 7 -21 19 -21 26 0 17 17 7 31 -19z m40 -36
c13 -16 12 -17 -3 -4 -10 7 -18 15 -18 17 0 8 8 3 21 -13z m524 -31 c-3 -3
-11 0 -18 7 -9 10 -8 11 6 5 10 -3 15 -9 12 -12z m-500 -22 c27 -30 12 -34
-15 -5 -13 14 -19 25 -13 25 5 0 18 -9 28 -20z m57 -1 c28 -17 29 -19 8 -14
-14 4 -32 13 -40 21 -21 20 -5 17 32 -7z m-324 -26 c23 -11 38 -26 40 -40 6
-43 133 -123 195 -123 15 0 27 -5 27 -12 0 -6 8 -20 18 -31 18 -22 10 -19 -38
13 -14 9 -43 22 -66 28 -57 17 -123 67 -140 108 -15 37 -35 49 -96 59 -21 3
-40 11 -44 17 -10 16 58 4 104 -19z m352 -18 c14 -8 21 -14 15 -14 -5 0 -21 6
-35 14 -14 8 -20 14 -15 14 6 0 21 -6 35 -14z m-222 -11 c17 -3 29 -11 27 -18
-9 -23 20 -44 60 -42 36 1 40 -1 40 -24 0 -32 -24 -37 -79 -16 -44 17 -116 76
-116 95 0 12 23 14 68 5z m117 -13 c8 0 15 -5 15 -11 0 -14 -53 -12 -73 3 -15
10 -14 12 13 11 16 -1 37 -2 45 -3z m244 -42 c64 -30 65 -30 45 -49 -15 -16
-37 -21 -94 -25 -41 -2 -76 -9 -78 -15 -4 -11 -51 -14 -75 -4 -9 3 -12 14 -9
30 4 23 8 25 36 18 39 -9 97 -13 114 -7 27 11 9 23 -35 23 -66 0 -113 19 -113
45 0 19 5 20 73 17 53 -3 89 -11 136 -33z m144 -43 c9 -7 17 -17 17 -22 -1 -9
-90 -57 -96 -51 -2 1 2 22 8 45 8 33 15 42 32 42 11 0 29 -7 39 -14z m256 -19
c7 -19 41 -78 77 -133 36 -54 68 -102 70 -106 11 -17 -62 -48 -111 -48 -76 0
-300 59 -284 75 3 2 25 -2 49 -9 71 -22 162 -36 222 -36 100 0 108 13 52 87
-20 26 -52 77 -72 114 l-37 67 -60 7 c-45 5 -62 3 -70 -8 -5 -7 -20 -16 -32
-19 -16 -4 -22 0 -26 18 l-4 24 108 0 107 0 11 -33z m-63 -7 c33 0 30 -18 -3
-22 -27 -4 -83 16 -83 29 0 3 14 3 31 -1 17 -3 42 -6 55 -6z m-286 -17 c-1
-19 -19 -35 -34 -30 -21 8 -20 24 2 30 28 7 32 7 32 0z m185 -12 c-6 -5 -32
-11 -60 -15 l-50 -5 35 13 c40 16 89 21 75 7z m-267 -8 c-10 -2 -28 -2 -40 0
-13 2 -5 4 17 4 22 1 32 -1 23 -4z m48 -109 c17 -13 40 -24 52 -24 11 0 24 -4
27 -10 15 -25 -41 -5 -115 39 -8 5 -31 14 -50 20 -34 10 -34 10 10 4 24 -3 59
-16 76 -29z"/>
<path d="M1959 1273 c-68 -50 -103 -65 -135 -57 -13 3 -24 2 -24 -4 0 -5 6 -9
13 -8 6 0 12 -3 12 -9 0 -5 -6 -9 -12 -9 -7 1 -10 -2 -7 -7 11 -19 -11 -8 -38
18 -30 29 -37 21 -12 -15 20 -28 58 -28 88 1 28 27 61 47 78 47 15 0 78 42 78
53 0 12 -16 8 -41 -10z"/>
<path d="M1675 1171 c-9 -16 9 -20 23 -5 10 12 10 14 -2 14 -8 0 -17 -4 -21
-9z"/>
<path d="M1936 1081 c-4 -6 4 -21 17 -34 17 -18 31 -23 55 -19 17 2 29 8 26
13 -3 5 12 9 33 8 34 -1 35 -2 13 -9 -29 -9 -28 -10 23 -14 78 -6 28 31 -62
44 -31 5 -66 12 -77 15 -12 4 -25 2 -28 -4z m34 -11 c0 -5 -2 -10 -4 -10 -3 0
-8 5 -11 10 -3 6 -1 10 4 10 6 0 11 -4 11 -10z"/>
<path d="M730 781 c0 -12 86 -82 93 -75 5 6 -75 84 -87 84 -3 0 -6 -4 -6 -9z"/>
<path d="M658 764 c-13 -23 -17 -65 -9 -87 13 -33 74 -46 102 -21 41 37 11
100 -52 110 -20 4 -39 2 -41 -2z"/>
<path d="M865 672 c33 -31 98 -67 93 -51 -5 14 -84 67 -103 68 -5 1 -1 -7 10
-17z"/>
<path d="M1000 592 c0 -8 147 -82 163 -82 4 0 7 5 7 10 0 6 -5 10 -11 10 -6 0
-42 16 -80 35 -76 38 -79 39 -79 27z"/>
<path d="M1263 467 c4 -14 116 -37 123 -26 3 5 2 9 -3 9 -4 1 -34 7 -66 15
-42 10 -57 10 -54 2z"/>
<path d="M1410 410 c0 -5 12 -10 28 -10 21 0 24 2 12 10 -20 13 -40 13 -40 0z"/>
<path d="M1500 392 c0 -10 51 -24 59 -16 7 6 -2 12 -32 19 -16 4 -27 3 -27 -3z"/>
<path d="M1605 362 c6 -7 26 -15 45 -18 26 -5 32 -4 25 4 -6 7 -26 15 -45 18
-26 5 -32 4 -25 -4z"/>
<path d="M1743 333 c9 -2 23 -2 30 0 6 3 -1 5 -18 5 -16 0 -22 -2 -12 -5z"/>
<path d="M1563 323 c-20 -7 -15 -61 7 -83 26 -26 64 -26 88 1 45 47 -28 110
-95 82z"/>
<path d="M1868 323 c7 -3 16 -2 19 1 4 3 -2 6 -13 5 -11 0 -14 -3 -6 -6z"/>
<path d="M1965 320 c-3 -5 3 -10 15 -10 12 0 18 5 15 10 -3 6 -10 10 -15 10
-5 0 -12 -4 -15 -10z"/>
</g>
</svg>
